<svg width="30" height="31" fill="none" xmlns="http://www.w3.org/2000/svg"><path d="M7.852 25.845c-1.298 0-2.349 1.023-2.349 2.273 0 1.25 1.05 2.274 2.35 2.274 1.298 0 2.36-1.023 2.36-2.274 0-1.25-1.062-2.273-2.36-2.273ZM.77 7.658V9.93h2.36l4.25 8.627-1.593 2.785a2.134 2.134 0 0 0-.296 1.092c0 1.25 1.063 2.273 2.361 2.273h14.165v-2.273H8.348a.287.287 0 0 1-.295-.284l.035-.137 1.063-1.853h8.794c.885 0 1.664-.466 2.066-1.17l4.226-7.378a1.08 1.08 0 0 0 .141-.545c0-.625-.531-1.137-1.18-1.137H5.739L4.63 7.658H.77Zm18.887 18.187c-1.299 0-2.35 1.023-2.35 2.273 0 1.25 1.051 2.274 2.35 2.274 1.298 0 2.36-1.023 2.36-2.274 0-1.25-1.062-2.273-2.36-2.273Z" fill="#959292"/><circle cx="23.067" cy="7.22" r="6.558" fill="#EA1701"/><path d="M23.788 3.031v7.631h-1.382V4.376h-.045l-1.785 1.14V4.25l1.897-1.219h1.315Z" fill="#fff"/></svg>