<svg width="52" height="53" fill="none" xmlns="http://www.w3.org/2000/svg"><rect y=".396" width="52" height="52" rx="15" fill="#EBD96B"/><path d="M38.43 21.456c.016.222.016.444.016.666 0 6.774-5.155 14.578-14.578 14.578-2.903 0-5.6-.84-7.868-2.3.413.048.809.064 1.237.064 2.396 0 4.6-.81 6.361-2.19a5.133 5.133 0 0 1-4.79-3.553c.317.048.634.08.967.08.46 0 .92-.064 1.349-.175a5.124 5.124 0 0 1-4.109-5.028v-.064a5.16 5.16 0 0 0 2.316.65 5.12 5.12 0 0 1-2.284-4.267c0-.951.254-1.824.698-2.585a14.564 14.564 0 0 0 10.565 5.362 5.785 5.785 0 0 1-.127-1.174 5.121 5.121 0 0 1 5.123-5.124c1.476 0 2.808.619 3.744 1.618a10.09 10.09 0 0 0 3.252-1.237 5.11 5.11 0 0 1-2.253 2.823 10.273 10.273 0 0 0 2.95-.793 11.017 11.017 0 0 1-2.569 2.65Z" fill="#000"/></svg>