<svg width="21" height="22" fill="none" xmlns="http://www.w3.org/2000/svg"><g clip-path="url(#a)"><path d="M3.5 7.212h3.498V3.714H3.5v3.498Zm5.247 10.492h3.497v-3.497H8.747v3.497Zm-5.247 0h3.498v-3.497H3.5v3.497Zm0-5.246h3.498V8.961H3.5v3.497Zm5.247 0h3.497V8.961H8.747v3.497Zm5.246-8.744v3.498h3.498V3.714h-3.498ZM8.747 7.212h3.497V3.714H8.747v3.498Zm5.246 5.246h3.498V8.961h-3.498v3.497Zm0 5.246h3.498v-3.497h-3.498v3.497Z" fill="#EBD96B"/></g><defs><clipPath id="a"><path fill="#fff" transform="translate(.003 .217)" d="M0 0h20.985v20.985H0z"/></clipPath></defs></svg>