<svg width="52" height="53" fill="none" xmlns="http://www.w3.org/2000/svg"><rect y=".396" width="52" height="52" rx="15" fill="#EBD96B"/><path d="M20.875 34.396h-3.398v-12.68h3.398v12.68Zm-3.598-15.96c0-.509.168-.927.504-1.255.344-.328.809-.492 1.395-.492.578 0 1.039.164 1.383.492.343.328.515.746.515 1.254 0 .516-.176.938-.527 1.266-.344.328-.8.492-1.371.492-.57 0-1.031-.164-1.383-.492-.344-.328-.516-.75-.516-1.266Zm9.996 3.28.105 1.465c.907-1.133 2.122-1.7 3.645-1.7 1.344 0 2.344.395 3 1.184.656.79.992 1.97 1.008 3.54v8.191h-3.387v-8.11c0-.718-.156-1.238-.469-1.558-.312-.328-.832-.492-1.558-.492-.953 0-1.668.406-2.145 1.219v8.941h-3.387v-12.68h3.188Z" fill="#000"/></svg>